<svg width="0" height="0" class="hidden">
  <symbol xmlns="http://www.w3.org/2000/svg" viewBox="0 0 135 7" id="sub-logo-title">
    <path d="M134.82 5.393h-.69V.663h.69v4.73zm-4.553-4.73h.69v4.73h-.69V.663zm.353 4.097h1.417a.86.86 0 00.405-.089.586.586 0 00.255-.265.916.916 0 00.09-.42.92.92 0 00-.09-.427.586.586 0 00-.255-.266.86.86 0 00-.405-.095h-1.417v-.634h1.395c.307 0 .577.059.795.17.217.11.39.272.502.486.12.213.173.471.173.766 0 .295-.06.553-.173.766a1.174 1.174 0 01-.502.487c-.218.11-.488.162-.795.162h-1.395V4.76zm-7.56-2.012h2.722v.634h-2.722v-.634zm-.428-2.085h.69v4.73h-.69V.663zm2.79 0h.69v4.73h-.69V.663zm-9.847 3.065h2.58v.634h-2.58v-.634zm.975-3.065h.585l1.807 4.73h-.742l-1.358-3.816-1.357 3.816h-.743l1.808-4.73zm-8.28 0h.69v4.73h-.69V.663zm.36 2.262h1.567a.75.75 0 00.39-.103.656.656 0 00.263-.288.97.97 0 00.09-.427c0-.162-.03-.31-.09-.427a.656.656 0 00-.263-.288.748.748 0 00-.39-.103h-1.567V.663h1.545c.292 0 .547.059.772.184.225.118.398.287.518.509.12.22.187.471.187.758 0 .288-.06.546-.187.76-.12.22-.293.383-.518.508a1.63 1.63 0 01-.772.177h-1.545v-.634zm-7.403-.192h1.538v.634h-1.538v-.634zm-.33-2.07h.69v4.73h-.69V.663zm1.26 2.653l.6-.34 1.89 2.425h-.952l-1.538-2.085zm0-.516l1.425-2.137h.863l-1.935 2.719-.353-.582zm-8.002-.067h2.242v.634h-2.242v-.634zm.975 2.712a1.72 1.72 0 01-.773-.177 1.653 1.653 0 01-.592-.494 1.779 1.779 0 01-.323-.736h.705a.998.998 0 00.218.412.925.925 0 00.352.258c.135.06.278.089.42.089a.946.946 0 00.878-.53 1.32 1.32 0 00.127-.583V2.387c0-.22-.037-.42-.127-.59a.946.946 0 00-.877-.53.945.945 0 00-.42.096 1.132 1.132 0 00-.353.265 1.15 1.15 0 00-.218.398h-.705c.06-.28.165-.523.323-.737.157-.213.352-.376.592-.493a1.7 1.7 0 01.773-.177c.337 0 .637.073.892.22.255.148.458.354.6.62.143.265.21.574.21.928v1.297c0 .354-.067.663-.21.928a1.504 1.504 0 01-.6.62c-.255.14-.555.213-.892.213zM82.807.663h2.813v.634h-2.813V.663zm0 2.07h2.445v.634h-2.445v-.634zm0 2.027h2.813v.633h-2.813V4.76zm-.33-4.097h.69v4.73h-.69V.663zm-4.162 4.73h-.69V.663h.69v4.73zm-4.56-4.73h.69v4.73h-.69V.663zm.36 4.097h1.417c.158 0 .293-.03.405-.089a.588.588 0 00.255-.265.916.916 0 00.09-.42.92.92 0 00-.09-.427.588.588 0 00-.255-.266.863.863 0 00-.405-.095h-1.417v-.634h1.395c.307 0 .577.059.795.17.217.11.39.272.502.486.113.213.173.471.173.766 0 .295-.06.553-.173.766a1.176 1.176 0 01-.502.487c-.218.11-.488.162-.795.162h-1.395V4.76zm-7.56-2.012h2.722v.634h-2.722v-.634zM66.127.663h.69v4.73h-.69V.663zm2.783 0h.69v4.73h-.69V.663zm-9.638 0h2.22v.634h-2.22V.663zm1.853 0h.69v4.73h-.69V.663zm.66 4.097h.69v1.606h-.69V4.76zm-3.87 0h4.245v.633h-4.245V4.76zm0 0h.69v1.606h-.69V4.76zm0 0h.03a.76.76 0 00.66-.332c.157-.22.232-.53.232-.936V.662h.69v2.89c0 .346-.06.64-.18.89a1.25 1.25 0 01-.517.56 1.672 1.672 0 01-.818.192h-.097V4.76zm-5.213.03c.203 0 .383-.045.533-.133a.924.924 0 00.36-.376 1.22 1.22 0 00.127-.56V2.336c0-.214-.045-.398-.127-.56a.878.878 0 00-.36-.376 1.056 1.056 0 00-.533-.133 1.03 1.03 0 00-.532.133.924.924 0 00-.36.376 1.212 1.212 0 00-.128.56V3.72c0 .213.045.398.128.56a.878.878 0 00.36.376c.157.088.33.132.532.132zm0 .655a1.89 1.89 0 01-.907-.214 1.504 1.504 0 01-.608-.611 1.895 1.895 0 01-.217-.914V2.358c0-.347.067-.656.217-.914.143-.265.345-.464.608-.612.262-.147.562-.213.907-.213.338 0 .645.073.9.213.263.148.465.347.608.612a1.9 1.9 0 01.217.914v1.34c0 .347-.067.65-.217.914a1.504 1.504 0 01-.608.612 1.767 1.767 0 01-.9.221zm-6.465-.052v-3.72l.083.088-2.46 3.632h-.563V.663h.683v3.773l-.083-.089 2.46-3.691h.555v4.723h-.675v.014zM36.45.663h2.22v.634h-2.22V.663zm1.852 0h.69v4.73h-.69V.663zm.653 4.097h.69v1.606h-.69V4.76zm-3.863 0h4.245v.633h-4.245V4.76zm0 0h.69v1.606h-.69V4.76zm0 0h.03c.285 0 .503-.11.66-.332.158-.22.233-.53.233-.936V.662h.69v2.89c0 .346-.06.64-.18.89-.12.244-.293.436-.518.56a1.672 1.672 0 01-.817.192h-.098V4.76zm-5.212.03c.202 0 .382-.045.532-.133a.924.924 0 00.36-.376c.083-.162.128-.347.128-.56V2.336c0-.214-.045-.398-.128-.56a.878.878 0 00-.36-.376 1.056 1.056 0 00-.532-.133c-.203 0-.383.044-.533.133a.924.924 0 00-.36.376 1.212 1.212 0 00-.127.56V3.72c0 .213.045.398.127.56a.878.878 0 00.36.376c.15.088.33.132.533.132zm0 .655c-.345 0-.645-.074-.908-.214a1.504 1.504 0 01-.607-.611 1.895 1.895 0 01-.218-.914V2.358c0-.347.068-.656.218-.914a1.51 1.51 0 01.607-.612c.263-.147.563-.213.908-.213.337 0 .645.073.9.213.262.148.465.347.607.612.143.265.218.567.218.914v1.34c0 .347-.075.65-.218.914a1.504 1.504 0 01-.607.612 1.767 1.767 0 01-.9.221zM21.315.663h3.457v.634h-3.457V.663zm1.387.39h.69v4.34h-.69v-4.34zm-7.455-.39h2.813v.634h-2.813V.663zm0 2.07h2.445v.634h-2.445v-.634zm0 2.027h2.813v.633h-2.813V4.76zM14.91.663h.69v4.73h-.69V.663zm-7.403 0h.683v4.73h-.683V.663zm.405 4.119H9.24c.345 0 .6-.066.765-.192a.656.656 0 00.24-.538v-.007a.99.99 0 00-.083-.413.584.584 0 00-.27-.265 1.119 1.119 0 00-.472-.096h-1.5v-.597h1.5c.255 0 .442-.058.577-.169.128-.118.195-.287.195-.508 0-.236-.075-.413-.217-.53-.143-.119-.36-.178-.645-.178H7.927V.663h1.53c.315 0 .585.051.795.155.218.103.375.25.48.442.105.191.158.42.158.685 0 .162-.03.317-.098.457a.931.931 0 01-.3.36c-.135.104-.3.17-.495.207a1.081 1.081 0 01.84.612c.075.162.113.331.113.523v.007c0 .258-.06.48-.173.678-.12.2-.285.347-.502.45a1.768 1.768 0 01-.765.162H7.927v-.62h-.015zm-6.022.663c-.338 0-.638-.074-.893-.221a1.552 1.552 0 01-.6-.619 1.932 1.932 0 01-.21-.928V2.38c0-.354.068-.663.21-.929.143-.265.338-.471.6-.619.255-.147.555-.22.893-.22.277 0 .54.058.772.176.233.118.435.28.593.494.157.214.262.457.322.737H2.88a1.039 1.039 0 00-.218-.398 1.057 1.057 0 00-.772-.361.946.946 0 00-.878.53c-.082.17-.127.361-.127.59v1.297c0 .22.045.42.127.582a.9.9 0 00.353.39 1.048 1.048 0 00.945.052c.135-.06.247-.148.352-.258.098-.118.173-.25.218-.413h.705c-.06.28-.165.523-.323.737a1.65 1.65 0 01-.592.494c-.24.125-.495.184-.78.184z"></path>
  </symbol>
  <symbol xmlns="http://www.w3.org/2000/svg" viewBox="0 0 135 28" id="full">
    <path d="M134.82 26.393h-.69v-4.73h.69v4.73zm-4.553-4.73h.69v4.73h-.69v-4.73zm.353 4.097h1.417c.158 0 .293-.03.405-.089a.585.585 0 00.255-.265.916.916 0 00.09-.42.92.92 0 00-.09-.427.586.586 0 00-.255-.266.86.86 0 00-.405-.095h-1.417v-.634h1.395c.307 0 .577.059.795.17.217.11.39.272.502.486.12.213.173.471.173.766 0 .295-.06.553-.173.766a1.174 1.174 0 01-.502.487c-.218.11-.488.162-.795.162h-1.395v-.641zm-7.56-2.012h2.722v.634h-2.722v-.634zm-.428-2.085h.69v4.73h-.69v-4.73zm2.79 0h.69v4.73h-.69v-4.73zm-9.847 3.065h2.58v.634h-2.58v-.634zm.975-3.065h.585l1.807 4.73h-.742l-1.358-3.816-1.357 3.816h-.743l1.808-4.73zm-8.28 0h.69v4.73h-.69v-4.73zm.36 2.262h1.567a.75.75 0 00.39-.103.657.657 0 00.263-.287.97.97 0 00.09-.428c0-.162-.03-.31-.09-.427a.656.656 0 00-.263-.288.748.748 0 00-.39-.103h-1.567v-.626h1.545c.292 0 .547.059.772.184.225.118.398.287.518.508.12.222.187.472.187.76 0 .287-.06.545-.187.758-.12.221-.293.384-.518.509a1.63 1.63 0 01-.772.177h-1.545v-.634zm-7.403-.192h1.538v.634h-1.538v-.634zm-.33-2.07h.69v4.73h-.69v-4.73zm1.26 2.652l.6-.338 1.89 2.424h-.952l-1.538-2.085zm0-.515l1.425-2.137h.863l-1.935 2.719-.353-.582zm-8.002-.067h2.242v.634h-2.242v-.634zm.975 2.712a1.72 1.72 0 01-.773-.177 1.653 1.653 0 01-.592-.494 1.78 1.78 0 01-.323-.736h.705a.998.998 0 00.57.67c.135.06.278.089.42.089a.946.946 0 00.878-.53 1.32 1.32 0 00.127-.583v-1.297c0-.22-.037-.42-.127-.59a.946.946 0 00-.877-.53.945.945 0 00-.42.096 1.13 1.13 0 00-.353.265 1.15 1.15 0 00-.218.398h-.705c.06-.28.165-.523.323-.737.157-.213.352-.376.592-.494.233-.117.495-.176.773-.176.337 0 .637.073.892.22.255.148.458.354.6.62.143.265.21.574.21.928v1.297c0 .354-.067.663-.21.928a1.504 1.504 0 01-.6.62c-.255.14-.555.213-.892.213zm-12.323-4.782h2.813v.634h-2.813v-.634zm0 2.07h2.445v.634h-2.445v-.634zm0 2.027h2.813v.633h-2.813v-.633zm-.33-4.097h.69v4.73h-.69v-4.73zm-4.162 4.73h-.69v-4.73h.69v4.73zm-4.56-4.73h.69v4.73h-.69v-4.73zm.36 4.097h1.417c.158 0 .293-.03.405-.089a.588.588 0 00.255-.265.916.916 0 00.09-.42.92.92 0 00-.09-.427.588.588 0 00-.255-.266.863.863 0 00-.405-.095h-1.417v-.634h1.395c.307 0 .577.059.795.17.217.11.39.272.502.486.113.213.173.471.173.766 0 .295-.06.553-.173.766a1.175 1.175 0 01-.502.487c-.218.11-.488.162-.795.162h-1.395v-.641zm-7.56-2.012h2.722v.634h-2.722v-.634zm-.428-2.085h.69v4.73h-.69v-4.73zm2.783 0h.69v4.73h-.69v-4.73zm-9.638 0h2.22v.634h-2.22v-.634zm1.853 0h.69v4.73h-.69v-4.73zm.66 4.097h.69v1.606h-.69V25.76zm-3.87 0h4.245v.633h-4.245v-.633zm0 0h.69v1.606h-.69V25.76zm0 0h.03a.76.76 0 00.66-.332c.157-.22.232-.53.232-.936v-2.83h.69v2.89c0 .346-.06.64-.18.89a1.25 1.25 0 01-.517.56 1.671 1.671 0 01-.818.193h-.097v-.435zm-5.213.03c.203 0 .383-.045.533-.133a.924.924 0 00.36-.376c.082-.162.127-.346.127-.56v-1.386c0-.213-.045-.397-.127-.56a.879.879 0 00-.36-.375 1.056 1.056 0 00-.533-.133 1.03 1.03 0 00-.532.133.924.924 0 00-.36.376 1.212 1.212 0 00-.128.56v1.385c0 .213.045.398.128.56a.878.878 0 00.36.376c.157.088.33.132.532.132zm0 .655a1.89 1.89 0 01-.907-.214 1.504 1.504 0 01-.608-.611 1.895 1.895 0 01-.217-.914v-1.348c0-.347.067-.656.217-.914.143-.265.345-.464.608-.612.262-.147.562-.213.907-.213.338 0 .645.073.9.213.263.148.465.347.608.612a1.9 1.9 0 01.217.914v1.34c0 .347-.067.65-.217.914a1.505 1.505 0 01-.608.612 1.768 1.768 0 01-.9.221zm-6.465-.052v-3.72l.083.088-2.46 3.632h-.563v-4.73h.683v3.773l-.083-.089 2.46-3.692h.555v4.724h-.675v.014zm-9.787-4.73h2.22v.634h-2.22v-.634zm1.852 0h.69v4.73h-.69v-4.73zm.653 4.097h.69v1.606h-.69V25.76zm-3.863 0h4.245v.633h-4.245v-.633zm0 0h.69v1.606h-.69V25.76zm0 0h.03c.285 0 .503-.11.66-.332.158-.22.233-.53.233-.936v-2.83h.69v2.89c0 .346-.06.64-.18.89-.12.244-.293.436-.518.56a1.671 1.671 0 01-.817.193h-.098v-.435zm-5.212.03c.202 0 .382-.045.532-.133a.924.924 0 00.36-.376c.083-.162.128-.346.128-.56v-1.386a1.21 1.21 0 00-.128-.56.879.879 0 00-.36-.375 1.056 1.056 0 00-.532-.133c-.203 0-.383.044-.533.133a.924.924 0 00-.36.376 1.212 1.212 0 00-.127.56v1.385c0 .213.045.398.127.56a.878.878 0 00.36.376c.15.088.33.132.533.132zm0 .655c-.345 0-.645-.074-.908-.214a1.504 1.504 0 01-.607-.611 1.895 1.895 0 01-.218-.914v-1.348c0-.347.068-.656.218-.914a1.51 1.51 0 01.607-.612c.263-.147.563-.213.908-.213.337 0 .645.073.9.213.262.148.465.347.607.612.143.265.218.567.218.914v1.34c0 .347-.075.65-.218.914a1.505 1.505 0 01-.607.612 1.768 1.768 0 01-.9.221zm-8.565-4.782h3.457v.634h-3.457v-.634zm1.387.39h.69v4.34h-.69v-4.34zm-7.455-.39h2.813v.634h-2.813v-.634zm0 2.07h2.445v.634h-2.445v-.634zm0 2.027h2.813v.633h-2.813v-.633zm-.337-4.097h.69v4.73h-.69v-4.73zm-7.403 0h.683v4.73h-.683v-4.73zm.405 4.119H9.24c.345 0 .6-.067.765-.192a.656.656 0 00.24-.538v-.007a.99.99 0 00-.083-.413.584.584 0 00-.27-.265 1.12 1.12 0 00-.472-.096h-1.5v-.597h1.5c.255 0 .442-.058.577-.169.128-.118.195-.287.195-.508 0-.236-.075-.413-.217-.53-.143-.119-.36-.178-.645-.178H7.927v-.626h1.53c.315 0 .585.052.795.155.218.103.375.25.48.442.105.191.158.42.158.685 0 .162-.03.317-.098.457a.931.931 0 01-.3.36c-.135.104-.3.17-.495.207a1.082 1.082 0 01.84.612c.075.162.113.331.113.523v.007c0 .258-.06.48-.173.678-.12.2-.285.346-.502.45a1.767 1.767 0 01-.765.162H7.927v-.62h-.015zm-6.022.663a1.76 1.76 0 01-.893-.221 1.552 1.552 0 01-.6-.619 1.932 1.932 0 01-.21-.928V23.38c0-.354.068-.663.21-.929.143-.265.338-.471.6-.619.255-.147.555-.22.893-.22.277 0 .54.058.772.176.233.118.435.28.593.494.157.213.262.457.322.737H2.88a1.039 1.039 0 00-.218-.398 1.058 1.058 0 00-.772-.361.947.947 0 00-.878.53c-.082.17-.127.361-.127.59v1.297c0 .22.045.42.127.582a.9.9 0 00.353.39 1.047 1.047 0 00.945.052c.135-.06.247-.148.352-.258.098-.118.173-.25.218-.413h.705c-.06.28-.165.523-.323.737a1.65 1.65 0 01-.592.494c-.24.125-.495.184-.78.184zM131.527 7.354v1.864h-1.035V7.354h-1.23l-.652 1.864h-1.313l3.195-8.51h1.035l3.195 8.51h-1.312l-.653-1.864h-1.23zm-1.867-1.135h2.7l-1.35-3.861-1.35 3.861zm-17.963-1.791h1.095l2.43-3.714h1.53l-2.94 4.2 3.3 4.31h-1.68l-2.662-3.661h-1.073v3.662h-1.215V.715h1.215v3.713zM97.29 9.218V2.527l.142.155-4.342 6.536h-.998V.714H93.3v6.787l-.143-.148 4.35-6.639h.983v8.504h-1.2zM74.925 4.465h3.705V.715h1.215v8.51H78.63V5.6h-3.705v3.625H73.71V.715h1.215v3.75zM60.008 7.354h-3.495l-.653 1.864h-1.313l3.196-8.51h1.035l3.194 8.51H60.66l-.652-1.864zM56.91 6.219h2.7l-1.35-3.861-1.35 3.861zM38.16 1.85v2.94h2.182c.263 0 .495-.06.69-.185.203-.118.353-.295.465-.516.113-.221.165-.479.165-.766 0-.295-.052-.553-.165-.774a1.208 1.208 0 00-.465-.516 1.27 1.27 0 00-.69-.184H38.16zM36.945.713h3.36c.517 0 .967.11 1.365.325.39.213.697.523.915.913.217.398.322.848.322 1.37 0 .524-.105.973-.322 1.364-.218.39-.518.693-.915.906a2.825 2.825 0 01-1.365.324h-2.138v3.302h-1.215V.714h-.007zM19.777 4.428h1.095L23.31.714h1.523l-2.94 4.2 3.307 4.31h-1.688l-2.662-3.66h-1.073v3.662h-1.215V.715h1.215v3.713z"></path>
    <path fill-rule="evenodd" clip-rule="evenodd" d="M3.532 1.886c.128.037.255.088.368.155.277.154.495.383.645.67.157.288.225.627.225 1.01v2.49c0 .383-.075.722-.225 1.01-.15.294-.368.516-.645.67-.113.067-.24.118-.368.155v-6.16zm-1.185 6.27H.172v1.157H2.94v.008c.615 0 1.155-.133 1.62-.39a2.668 2.668 0 001.087-1.099c.255-.471.383-1.024.383-1.65V3.765c0-.626-.128-1.172-.383-1.65a2.668 2.668 0 00-1.087-1.1A3.268 3.268 0 003 .626H.172v1.157h2.175V4.42h-1.5v1.157h1.5v2.578z"></path>
  </symbol>

<symbol viewBox="0 0 18 18" fill="none" xmlns="http://www.w3.org/2000/svg" id="calculator">
<path d="M1.72729 3.90887H6.09093M3.90911 6.09069V1.72705M11.9091 3.90887H16.2727M12.6364 16.2725H16.2727M12.6364 12.6361H16.2727M1.72729 12.6361L5.36366 16.2725M1.72729 16.2725L5.36366 12.6361"  stroke-width="1.5" stroke-linecap="round" stroke-linejoin="round"></path>
</symbol>
<symbol  viewBox="0 0 185 39" fill="none" xmlns="http://www.w3.org/2000/svg" id="footer-full-logo">
<path d="M184.753 36.7624H183.808V30.1734H184.753V36.7624ZM178.515 30.1734H179.46V36.7624H178.515V30.1734ZM178.998 35.8797H180.94C181.156 35.8797 181.341 35.8387 181.495 35.7566C181.649 35.6745 181.762 35.5513 181.845 35.3871C181.927 35.2229 181.968 35.0279 181.968 34.8021C181.968 34.566 181.927 34.371 181.845 34.2068C181.762 34.0426 181.649 33.9195 181.495 33.8374C181.341 33.7552 181.156 33.7039 180.94 33.7039H178.998V32.8213H180.909C181.331 32.8213 181.701 32.9034 181.999 33.0574C182.297 33.2113 182.533 33.4371 182.687 33.7347C182.852 34.0324 182.924 34.3916 182.924 34.8021C182.924 35.2126 182.842 35.5718 182.687 35.8695C182.533 36.1671 182.297 36.3826 181.999 36.5468C181.701 36.7008 181.331 36.7726 180.909 36.7726H178.998V35.8797ZM168.638 33.0779H172.369V33.9605H168.638V33.0779ZM168.052 30.1734H168.997V36.7624H168.052V30.1734ZM171.875 30.1734H172.821V36.7624H171.875V30.1734ZM158.38 34.4429H161.916V35.3255H158.38V34.4429ZM159.717 30.1734H160.518L162.995 36.7624H161.978L160.117 31.446L158.257 36.7624H157.24L159.717 30.1734ZM148.37 30.1734H149.315V36.7624H148.37V30.1734ZM148.863 33.3242H151.011C151.217 33.3242 151.392 33.2729 151.546 33.1805C151.7 33.0881 151.823 32.9547 151.905 32.7802C151.988 32.6058 152.029 32.4108 152.029 32.185C152.029 31.9592 151.988 31.7539 151.905 31.5897C151.823 31.4152 151.7 31.2818 151.546 31.1895C151.392 31.0971 151.217 31.0458 151.011 31.0458H148.863V30.1734H150.98C151.381 30.1734 151.731 30.2555 152.039 30.43C152.347 30.5942 152.584 30.8302 152.748 31.1381C152.913 31.446 153.005 31.795 153.005 32.1952C153.005 32.5955 152.923 32.9547 152.748 33.2524C152.584 33.5602 152.347 33.786 152.039 33.9605C151.731 34.1247 151.381 34.2068 150.98 34.2068H148.863V33.3242ZM138.719 33.0574H140.826V33.94H138.719V33.0574ZM138.267 30.1734H139.212V36.7624H138.267V30.1734ZM139.994 33.8681L140.816 33.396L143.406 36.7726H142.1L139.994 33.8681ZM139.994 33.1497L141.946 30.1734H143.128L140.477 33.9605L139.994 33.1497ZM129.027 33.0574H132.1V33.94H129.027V33.0574ZM130.363 36.8342C129.983 36.8342 129.633 36.7521 129.305 36.5879C128.986 36.4237 128.708 36.1979 128.493 35.9002C128.277 35.6026 128.123 35.2639 128.051 34.8739H129.017C129.079 35.0997 129.171 35.2845 129.315 35.4487C129.449 35.6129 129.613 35.7258 129.798 35.8079C129.983 35.89 130.178 35.931 130.374 35.931C130.651 35.931 130.887 35.8695 131.093 35.736C131.299 35.6026 131.463 35.4281 131.576 35.1921C131.689 34.956 131.751 34.6892 131.751 34.3813V32.575C131.751 32.2671 131.699 31.99 131.576 31.7539C131.463 31.5179 131.299 31.3331 131.093 31.21C130.887 31.0766 130.651 31.015 130.374 31.015C130.178 31.015 129.983 31.056 129.798 31.1484C129.613 31.2408 129.449 31.3639 129.315 31.5179C129.181 31.6821 129.079 31.8668 129.017 32.0721H128.051C128.133 31.6821 128.277 31.3434 128.493 31.0458C128.708 30.7481 128.976 30.5224 129.305 30.3581C129.623 30.1939 129.983 30.1118 130.363 30.1118C130.826 30.1118 131.237 30.2145 131.586 30.4197C131.936 30.625 132.213 30.9124 132.409 31.2818C132.604 31.6513 132.696 32.0824 132.696 32.575V34.3813C132.696 34.8739 132.604 35.305 132.409 35.6745C132.213 36.0439 131.946 36.3313 131.586 36.5366C131.237 36.7316 130.826 36.8342 130.363 36.8342ZM113.477 30.1734H117.331V31.056H113.477V30.1734ZM113.477 33.0574H116.827V33.94H113.477V33.0574ZM113.477 35.8797H117.331V36.7624H113.477V35.8797ZM113.025 30.1734H113.97V36.7624H113.025V30.1734ZM107.32 36.7624H106.375V30.1734H107.32V36.7624ZM101.072 30.1734H102.017V36.7624H101.072V30.1734ZM101.565 35.8797H103.507C103.723 35.8797 103.908 35.8387 104.062 35.7566C104.217 35.6745 104.33 35.5513 104.412 35.3871C104.494 35.2229 104.535 35.0279 104.535 34.8021C104.535 34.566 104.494 34.371 104.412 34.2068C104.33 34.0426 104.217 33.9195 104.062 33.8374C103.908 33.7552 103.723 33.7039 103.507 33.7039H101.565V32.8213H103.477C103.898 32.8213 104.268 32.9034 104.566 33.0574C104.864 33.2113 105.1 33.4371 105.255 33.7347C105.409 34.0324 105.491 34.3916 105.491 34.8021C105.491 35.2126 105.409 35.5718 105.255 35.8695C105.1 36.1671 104.864 36.3826 104.566 36.5468C104.268 36.7008 103.898 36.7726 103.477 36.7726H101.565V35.8797ZM91.2049 33.0779H94.9357V33.9605H91.2049V33.0779ZM90.6191 30.1734H91.5646V36.7624H90.6191V30.1734ZM94.4321 30.1734H95.3777V36.7624H94.4321V30.1734ZM81.2252 30.1734H84.2674V31.056H81.2252V30.1734ZM83.7638 30.1734H84.7093V36.7624H83.7638V30.1734ZM84.6682 35.8797H85.6138V38.1171H84.6682V35.8797ZM79.3649 35.8797H85.1821V36.7624H79.3649V35.8797ZM79.3649 35.8797H80.3104V38.1171H79.3649V35.8797ZM79.3649 35.8797H79.406C79.7966 35.8797 80.0946 35.7258 80.3104 35.4179C80.5263 35.11 80.6291 34.6789 80.6291 34.1145V30.1734H81.5746V34.1966C81.5746 34.6789 81.4924 35.0895 81.3279 35.4384C81.1635 35.7771 80.9271 36.0439 80.6188 36.2184C80.3104 36.3929 79.9302 36.4852 79.4985 36.4852H79.3649V35.8797ZM72.2218 35.9208C72.4993 35.9208 72.746 35.8592 72.9516 35.736C73.1674 35.6129 73.3216 35.4384 73.4449 35.2126C73.5579 34.9868 73.6196 34.7302 73.6196 34.4326V32.5031C73.6196 32.2055 73.5579 31.9489 73.4449 31.7231C73.3318 31.4974 73.1674 31.3229 72.9516 31.1997C72.7357 31.0766 72.4993 31.015 72.2218 31.015C71.9443 31.015 71.6977 31.0766 71.4921 31.1997C71.2763 31.3229 71.1221 31.4974 70.9988 31.7231C70.8857 31.9489 70.8241 32.2055 70.8241 32.5031V34.4326C70.8241 34.7302 70.8857 34.9868 70.9988 35.2126C71.1118 35.4384 71.2763 35.6129 71.4921 35.736C71.7079 35.8592 71.9443 35.9208 72.2218 35.9208ZM72.2218 36.8342C71.7491 36.8342 71.3379 36.7316 70.9782 36.5366C70.6185 36.3313 70.341 36.0542 70.1457 35.6847C69.9504 35.3152 69.8477 34.8945 69.8477 34.4121V32.5339C69.8477 32.0516 69.9402 31.6205 70.1457 31.2613C70.341 30.8918 70.6185 30.6147 70.9782 30.4095C71.3379 30.2042 71.7491 30.1118 72.2218 30.1118C72.6843 30.1118 73.1057 30.2145 73.4552 30.4095C73.8149 30.6147 74.0924 30.8918 74.2877 31.2613C74.4829 31.6308 74.5857 32.0516 74.5857 32.5339V34.4018C74.5857 34.8842 74.4932 35.305 74.2877 35.6745C74.0924 36.0439 73.8149 36.321 73.4552 36.5263C73.1057 36.7316 72.6946 36.8342 72.2218 36.8342ZM63.3624 36.7624V31.5795L63.4754 31.7026L60.1043 36.7624H59.3335V30.1734H60.2688V35.4281L60.1557 35.305L63.5268 30.1631H64.2874V36.7418H63.3624V36.7624ZM49.9499 30.1734H52.9921V31.056H49.9499V30.1734ZM52.4885 30.1734H53.4341V36.7624H52.4885V30.1734ZM53.3827 35.8797H54.3282V38.1171H53.3827V35.8797ZM48.0896 35.8797H53.9068V36.7624H48.0896V35.8797ZM48.0896 35.8797H49.0352V38.1171H48.0896V35.8797ZM48.0896 35.8797H48.1307C48.5213 35.8797 48.8193 35.7258 49.0352 35.4179C49.251 35.11 49.3538 34.6789 49.3538 34.1145V30.1734H50.2993V34.1966C50.2993 34.6789 50.2171 35.0895 50.0527 35.4384C49.8882 35.7771 49.6518 36.0439 49.3435 36.2184C49.0352 36.3929 48.6549 36.4852 48.2232 36.4852H48.0896V35.8797ZM40.9466 35.9208C41.2241 35.9208 41.4707 35.8592 41.6763 35.736C41.8921 35.6129 42.0463 35.4384 42.1696 35.2126C42.2827 34.9868 42.3443 34.7302 42.3443 34.4326V32.5031C42.3443 32.2055 42.2827 31.9489 42.1696 31.7231C42.0566 31.4974 41.8921 31.3229 41.6763 31.1997C41.4604 31.0766 41.2241 31.015 40.9466 31.015C40.6691 31.015 40.4224 31.0766 40.2168 31.1997C40.001 31.3229 39.8468 31.4974 39.7235 31.7231C39.6105 31.9489 39.5488 32.2055 39.5488 32.5031V34.4326C39.5488 34.7302 39.6105 34.9868 39.7235 35.2126C39.8366 35.4384 40.001 35.6129 40.2168 35.736C40.4224 35.8592 40.6691 35.9208 40.9466 35.9208ZM40.9466 36.8342C40.4738 36.8342 40.0627 36.7316 39.7029 36.5366C39.3432 36.3313 39.0657 36.0542 38.8704 35.6847C38.6752 35.3152 38.5724 34.8945 38.5724 34.4121V32.5339C38.5724 32.0516 38.6649 31.6205 38.8704 31.2613C39.0657 30.8918 39.3432 30.6147 39.7029 30.4095C40.0627 30.2042 40.4738 30.1118 40.9466 30.1118C41.4091 30.1118 41.8304 30.2145 42.1799 30.4095C42.5396 30.6147 42.8171 30.8918 43.0124 31.2613C43.2077 31.6308 43.3104 32.0516 43.3104 32.5339V34.4018C43.3104 34.8842 43.2077 35.305 43.0124 35.6745C42.8171 36.0439 42.5396 36.321 42.1799 36.5263C41.8304 36.7316 41.4193 36.8342 40.9466 36.8342ZM29.2093 30.1734H33.9474V31.056H29.2093V30.1734ZM31.1107 30.7174H32.0563V36.7624H31.1107V30.7174ZM20.8946 30.1734H24.7488V31.056H20.8946V30.1734ZM20.8946 33.0574H24.2452V33.94H20.8946V33.0574ZM20.8946 35.8797H24.7488V36.7624H20.8946V35.8797ZM20.4321 30.1734H21.3777V36.7624H20.4321V30.1734ZM10.2879 30.1734H11.2232V36.7624H10.2879V30.1734ZM10.8429 35.9105H12.6621C13.1349 35.9105 13.4843 35.8181 13.7104 35.6437C13.9263 35.4692 14.0393 35.2126 14.0393 34.8945V34.8842C14.0393 34.6584 13.9982 34.4737 13.9263 34.3095C13.8441 34.1452 13.7207 34.0221 13.5563 33.94C13.3816 33.8579 13.1657 33.8066 12.9088 33.8066H10.8532V32.9752H12.9088C13.2582 32.9752 13.5152 32.8931 13.7002 32.7392C13.8749 32.575 13.9674 32.3389 13.9674 32.031C13.9674 31.7026 13.8646 31.4563 13.6693 31.2921C13.4741 31.1279 13.176 31.0458 12.7854 31.0458H10.8635V30.1734H12.9602C13.3918 30.1734 13.7618 30.2452 14.0496 30.3889C14.3477 30.5326 14.5635 30.7379 14.7074 31.0047C14.8513 31.2716 14.9232 31.5897 14.9232 31.9592C14.9232 32.185 14.8821 32.4005 14.7896 32.5955C14.6971 32.7905 14.5635 32.965 14.3785 33.0984C14.1935 33.2421 13.9674 33.3345 13.7002 33.3858C13.9674 33.4268 14.2038 33.5192 14.3991 33.6731C14.5943 33.8271 14.7485 34.0118 14.8513 34.2376C14.9541 34.4634 15.0054 34.6995 15.0054 34.9663V34.9766C15.0054 35.3358 14.9232 35.6437 14.7691 35.9208C14.6046 36.1979 14.3785 36.4031 14.0804 36.5468C13.7824 36.6905 13.4329 36.7726 13.0321 36.7726H10.8635V35.9105H10.8429ZM2.58989 36.8342C2.12739 36.8342 1.71628 36.7316 1.36684 36.5263C1.01739 36.321 0.739891 36.0337 0.544614 35.6642C0.349336 35.2947 0.256836 34.8637 0.256836 34.371V32.5647C0.256836 32.0721 0.349336 31.641 0.544614 31.2716C0.739891 30.9021 1.00711 30.6147 1.36684 30.4095C1.71628 30.2042 2.12739 30.1016 2.58989 30.1016C2.97017 30.1016 3.32989 30.1837 3.6485 30.3479C3.96711 30.5121 4.24461 30.7379 4.46045 31.0355C4.67628 31.3331 4.82017 31.6718 4.90239 32.0618H3.94656C3.88489 31.8566 3.79239 31.6718 3.6485 31.5076C3.51489 31.3434 3.35045 31.2202 3.16545 31.1381C2.98045 31.056 2.78517 31.0047 2.58989 31.0047C2.31239 31.0047 2.076 31.0663 1.87045 31.1997C1.66489 31.3331 1.50045 31.5076 1.38739 31.7437C1.27434 31.9797 1.21267 32.2466 1.21267 32.5647V34.371C1.21267 34.6789 1.27434 34.956 1.38739 35.1818C1.50045 35.4179 1.66489 35.6026 1.87045 35.7258C2.076 35.8489 2.31239 35.9208 2.58989 35.9208C2.78517 35.9208 2.98045 35.8797 3.16545 35.7976C3.35045 35.7155 3.50461 35.5924 3.6485 35.4384C3.78211 35.2742 3.88489 35.0895 3.94656 34.8637H4.91267C4.83045 35.2537 4.68656 35.5924 4.47072 35.89C4.25489 36.1876 3.97739 36.4134 3.65878 36.5776C3.32989 36.7521 2.98045 36.8342 2.58989 36.8342Z" fill="#a3a3a3"/>
<path d="M180.241 10.2427V12.8393H178.823V10.2427H177.137L176.243 12.8393H174.445L178.823 0.985352H180.241L184.62 12.8393H182.821L181.927 10.2427H180.241ZM177.682 8.66219H181.382L179.532 3.2843L177.682 8.66219Z" fill="#a3a3a3"/>
<path d="M153.067 6.16775H154.567L157.897 0.995117H159.994L155.965 6.84512L160.487 12.8491H158.185L154.537 7.74828H153.067V12.8491H151.402V0.995117H153.067V6.16775Z" fill="#a3a3a3"/>
<path d="M133.322 12.8388V3.51985L133.517 3.73538L127.566 12.8388H126.199V0.995117H127.854V10.4475L127.659 10.2422L133.62 0.995117H134.966V12.8388H133.322Z" fill="#a3a3a3"/>
<path d="M102.677 6.21907H107.754V0.995117H109.419V12.8491H107.754V7.79959H102.677V12.8491H101.012V0.995117H102.677V6.21907Z" fill="#a3a3a3"/>
<path d="M82.2325 10.2427H77.443L76.5489 12.8393H74.7502L79.1286 0.985352H80.5469L84.9252 12.8393H83.1266L82.2325 10.2427ZM77.9877 8.66219H81.6877L79.8377 3.2843L77.9877 8.66219Z" fill="#a3a3a3"/>
<path d="M52.2932 2.57564V6.67064H55.284C55.6437 6.67064 55.9623 6.58854 56.2296 6.41406C56.5071 6.24985 56.7126 6.00354 56.8668 5.69564C57.021 5.38775 57.0929 5.02854 57.0929 4.62828C57.0929 4.21775 57.021 3.85854 56.8668 3.55064C56.7126 3.24275 56.5071 2.99643 56.2296 2.83222C55.9521 2.65775 55.6437 2.57564 55.284 2.57564H52.2932ZM50.6282 0.995117H51.4915H52.3035H55.2326C55.9418 0.995117 56.5585 1.14906 57.1032 1.4467C57.6376 1.74433 58.059 2.17538 58.3571 2.71933C58.6551 3.27354 58.799 3.89959 58.799 4.62828C58.799 5.35696 58.6551 5.98301 58.3571 6.52696C58.059 7.07091 57.6479 7.4917 57.1032 7.78933C56.5585 8.08696 55.9418 8.24091 55.2326 8.24091H52.3035V12.8388H50.6385V0.995117H50.6282Z" fill="#a3a3a3"/>
<path d="M27.1025 6.16775H28.6031L31.9433 0.995117H34.0297L30.0008 6.84512L34.5333 12.8491H32.2208L28.5722 7.74828H27.1025V12.8491H25.4375V0.995117H27.1025V6.16775Z" fill="#a3a3a3"/>
<path fill-rule="evenodd" clip-rule="evenodd" d="M4.83882 2.62707C5.01354 2.67839 5.18826 2.75023 5.34243 2.8426C5.72271 3.05812 6.02076 3.37628 6.22632 3.77654C6.44215 4.17681 6.53465 4.64891 6.53465 5.1826V8.65154C6.53465 9.18523 6.43188 9.65733 6.22632 10.0576C6.02076 10.4681 5.72271 10.776 5.34243 10.9915C5.18826 11.0839 5.01354 11.1558 4.83882 11.2071V2.62707ZM3.21493 11.361H0.234375V12.9723H3.21493H3.97549H4.02688V12.9826C4.86965 12.9826 5.60965 12.7979 6.24687 12.4386C6.89437 12.0794 7.38771 11.5663 7.73715 10.9094C8.0866 10.2526 8.26132 9.48286 8.26132 8.61049V5.24418C8.26132 4.37181 8.0866 3.61233 7.73715 2.94523C7.38771 2.28839 6.89437 1.77523 6.24687 1.41602C5.63021 1.06707 4.91076 0.882333 4.1091 0.87207H4.07826H4.06799H4.02688H3.21493H0.234375V2.48339H3.21493V6.1576H1.15938V7.76891H3.21493V11.361Z" fill="#a3a3a3"/>
</symbol>
<symbol  viewBox="0 0 18 18" fill="none" xmlns="http://www.w3.org/2000/svg" id="instagram">
<path d="M12.3787 1.25H5.622C3.20657 1.25 1.25 3.20761 1.25 5.622V12.378C1.25 14.7934 3.20761 16.75 5.622 16.75H12.378C14.7933 16.75 16.75 14.7925 16.75 12.3787V5.622C16.75 3.20672 14.7925 1.25 12.3787 1.25Z"  stroke-width="2" stroke-linecap="round" stroke-linejoin="round"/>
<path d="M12.7106 5.03496C12.5711 5.03571 12.4578 5.14896 12.4578 5.28846C12.4578 5.42796 12.5718 5.54121 12.7113 5.54121C12.8508 5.54121 12.9641 5.42796 12.9641 5.28846C12.9648 5.14821 12.8508 5.03496 12.7106 5.03496"  stroke-width="2" stroke-linecap="round" stroke-linejoin="round"/>
<path d="M10.9094 7.09086C11.9638 8.14528 11.9638 9.85482 10.9094 10.9092C9.85494 11.9637 8.1454 11.9637 7.09098 10.9092C6.03657 9.85482 6.03657 8.14528 7.09098 7.09086C8.1454 6.03644 9.85494 6.03644 10.9094 7.09086"  stroke-width="2" stroke-linecap="round" stroke-linejoin="round"/>
</symbol>
<symbol  viewBox="0 0 18 18" fill="none" xmlns="http://www.w3.org/2000/svg" id="facebook">
<path d="M12.378 1.25H5.625C3.20897 1.25 1.25 3.20897 1.25 5.625V12.378C1.25 14.7925 3.20747 16.75 5.622 16.75H12.378C14.7924 16.75 16.75 14.7927 16.75 12.3787V5.622C16.75 3.20747 14.7925 1.25 12.378 1.25Z"  stroke-width="2" stroke-linecap="round" stroke-linejoin="round"/>
<path d="M8.32483 9.67505H12.3748"  stroke-width="2" stroke-linecap="round" stroke-linejoin="round"/>
<path d="M12.3752 6.30005H11.6664C10.5669 6.30005 9.67517 7.1918 9.67517 8.2913V9.00005V15.75"  stroke-width="2" stroke-linecap="round" stroke-linejoin="round"/>
</symbol>
<symbol  viewBox="0 0 18 18" fill="none" xmlns="http://www.w3.org/2000/svg" id="youtube">
<path fill-rule="evenodd" clip-rule="evenodd" d="M7.5 11.25L11.397 9L7.5 6.75V11.25Z"  stroke-width="2" stroke-linecap="round" stroke-linejoin="round"/>
<path d="M12.378 1.25H5.625C3.20897 1.25 1.25 3.20897 1.25 5.625V12.378C1.25 14.7925 3.20747 16.75 5.622 16.75H12.378C14.7924 16.75 16.75 14.7927 16.75 12.3787V5.622C16.75 3.20747 14.7925 1.25 12.378 1.25Z"  stroke-width="2" stroke-linecap="round" stroke-linejoin="round"/>
</symbol>

<symbol  viewBox="0 0 16 12" fill="none" xmlns="http://www.w3.org/2000/svg" id="arrow">
<g opacity="0.9">
<path d="M3.42857 3.6001L8 8.4001L12.5714 3.6001" stroke-linecap="round" stroke-linejoin="round"/>
</g>
</symbol>

<symbol width="22" height="22" viewBox="0 0 22 22" fill="none" xmlns="http://www.w3.org/2000/svg" id="textarea-icon">
<g filter="url(#filter0_ii)">
<rect width="22" height="22" rx="2" fill=" #ab78ff"/>
</g>
<defs>
<filter id="filter0_ii" x="-1" y="-1" width="24" height="24" filterUnits="userSpaceOnUse" color-interpolation-filters="sRGB">
<feFlood flood-opacity="0" result="BackgroundImageFix"/>
<feBlend mode="normal" in="SourceGraphic" in2="BackgroundImageFix" result="shape"/>
<feColorMatrix in="SourceAlpha" type="matrix" values="0 0 0 0 0 0 0 0 0 0 0 0 0 0 0 0 0 0 127 0" result="hardAlpha"/>
<feOffset dx="1" dy="1"/>
<feGaussianBlur stdDeviation="2.5"/>
<feComposite in2="hardAlpha" operator="arithmetic" k2="-1" k3="1"/>
<feColorMatrix type="matrix" values="0 0 0 0 0 0 0 0 0 0.00654762 0 0 0 0 0.0458333 0 0 0 0.8 0"/>
<feBlend mode="normal" in2="shape" result="effect1_innerShadow"/>
<feColorMatrix in="SourceAlpha" type="matrix" values="0 0 0 0 0 0 0 0 0 0 0 0 0 0 0 0 0 0 127 0" result="hardAlpha"/>
<feOffset dx="-1" dy="-1"/>
<feGaussianBlur stdDeviation="1"/>
<feComposite in2="hardAlpha" operator="arithmetic" k2="-1" k3="1"/>
<feColorMatrix type="matrix" values="0 0 0 0 0.137255 0 0 0 0 0.129412 0 0 0 0 0.227451 0 0 0 0.3 0"/>
<feBlend mode="normal" in2="effect1_innerShadow" result="effect2_innerShadow"/>
</filter>
</defs>
</symbol>



</svg>